/vscmnt/brussel_pixiu_data/_data_brussel/112/vsc11236/PredSimResults/SUBJ04mtu3D/SUBJ04mtu3D_12829338.mot
version=1
nRows=8
nColumns=50
inDegrees=yes
endheader
                time	         pelvis_tilt	         pelvis_list	     pelvis_rotation	           pelvis_tx	           pelvis_ty	           pelvis_tz	       hip_flexion_r	     hip_adduction_r	      hip_rotation_r	        knee_angle_r	       ankle_angle_r	         mtp_angle_r	       hip_flexion_l	     hip_adduction_l	      hip_rotation_l	        knee_angle_l	       ankle_angle_l	         mtp_angle_l	    lumbar_extension	      lumbar_bending	     lumbar_rotation	 ercspn_r/activation	 intobl_r/activation	 extobl_r/activation	    abd_r/activation	    add_r/activation	hamstrings_r/activation	bifemsh_r/activation	glut_max_r/activation	iliopsoas_r/activation	rect_fem_r/activation	  vasti_r/activation	gastroc_r/activation	 soleus_r/activation	tib_ant_r/activation	 ercspn_l/activation	 intobl_l/activation	 extobl_l/activation	    abd_l/activation	    add_l/activation	hamstrings_l/activation	bifemsh_l/activation	glut_max_l/activation	iliopsoas_l/activation	rect_fem_l/activation	  vasti_l/activation	gastroc_l/activation	 soleus_l/activation	tib_ant_l/activation	
          2.01690239	         -4.91392820	          4.72648782	        -12.18339434	          1.89588825	          0.88334444	          0.01947717	         -9.83849417	         -4.73480002	         14.29606554	         -8.44410279	         11.80391918	         24.33489513	         24.22777341	          0.33993414	         -5.01087154	          2.54700236	          5.25948707	          0.21299114	         -3.86107398	         -1.87360488	          1.27142532	          0.03194184	          0.00999999	          0.00999999	          0.08144711	          0.00999999	          0.01826986	          0.13746585	          0.06170957	          0.31680805	          0.00999999	          0.00999999	          0.29291533	          0.27353447	          0.01473300	          0.09734816	          0.17323056	          0.01986943	          0.02724145	          0.10038616	          0.02434529	          0.01000000	          0.00999999	          0.06170957	          0.00999999	          0.01588158	          0.00999999	          0.00999999	          0.26456468	
          2.03034841	         -5.03137105	          4.61424674	        -12.05450383	          1.91096920	          0.88156513	          0.01852104	        -10.04840303	         -4.58696468	         13.48261733	         -9.77796262	         11.47710386	         26.03998918	         23.84183871	          0.60788149	         -3.74643291	          1.98948054	          4.90343504	          0.22006224	         -3.58188555	         -2.15066880	          1.54494916	          0.05717441	          0.00999999	          0.00999999	          0.06653631	          0.01748382	          0.01492515	          0.11229950	          0.05041218	          0.28357341	          0.00999999	          0.00999999	          0.26788889	          0.26496592	          0.01203578	          0.07952629	          0.17071021	          0.01623186	          0.02225426	          0.11715686	          0.02455492	          0.01000000	          0.01229005	          0.05041219	          0.01000000	          0.01297409	          0.01645669	          0.01498421	          0.26697166	
          2.04379442	         -5.13214937	          4.50019837	        -11.85580647	          1.92641727	          0.87995310	          0.01747818	        -10.20026400	         -4.42256359	         12.63281767	        -11.29407978	         11.02073565	         27.77023603	         23.33044172	          0.87757234	         -2.52928246	          1.39821187	          4.48559961	          0.21198627	         -3.28659261	         -2.45068352	          1.80810416	          0.08286574	          0.00999999	          0.00999999	          0.05435527	          0.02698572	          0.01219276	          0.09174044	          0.04118305	          0.24769292	          0.01000000	          0.00999999	          0.23881442	          0.24857881	          0.00999999	          0.06899899	          0.17597145	          0.01326024	          0.03747829	          0.09570855	          0.02783365	          0.06392827	          0.02057538	          0.04118305	          0.00999999	          0.01059888	          0.01344390	          0.01224100	          0.30460967	
          2.05724044	         -5.21713574	          4.38840617	        -11.57999250	          1.94204700	          0.87871438	          0.01633115	        -10.23380480	         -4.23522492	         11.73485878	        -13.06164326	         10.38036415	         29.50735333	         22.71948106	          1.16850629	         -1.38800765	          0.98428171	          3.94599134	          0.19840287	         -2.99356364	         -2.77655789	          2.06053646	          0.10627552	          0.00999999	          0.00999999	          0.04440427	          0.02877398	          0.01000001	          0.07494520	          0.03364353	          0.20996104	          0.01113423	          0.00999999	          0.19509384	          0.22676494	          0.00999999	          0.07019024	          0.14970114	          0.01083264	          0.06223457	          0.07818686	          0.03095881	          0.05222470	          0.03301045	          0.03364353	          0.00999999	          0.00999999	          0.01098268	          0.01000000	          0.33108078	
          2.07068645	         -5.28669682	          4.27803958	        -11.22886121	          1.95771582	          0.87800925	          0.01509752	        -10.11811692	         -4.02174348	         10.76867086	        -15.10002000	          9.52203516	         31.17049761	         22.04698319	          1.47903896	         -0.32885505	          0.64369064	          3.46996215	          0.18310080	         -2.71341852	         -3.12606243	          2.29962378	          0.12200581	          0.00999999	          0.00999999	          0.03627502	          0.03164208	          0.01177737	          0.06122473	          0.02748429	          0.18420094	          0.00999999	          0.00999999	          0.15937733	          0.18694373	          0.00999999	          0.06503647	          0.12229484	          0.00999999	          0.08297933	          0.06387292	          0.03566619	          0.04266375	          0.03745948	          0.02748429	          0.00999999	          0.01123155	          0.00999999	          0.00999999	          0.35285411	
          2.08413247	         -5.34120867	          4.16415809	        -10.80799835	          1.97330997	          0.87789687	          0.01379811	         -9.83244274	         -3.77982888	          9.71607998	        -17.42142846	          8.46869370	         32.60266447	         21.33222696	          1.79613212	          0.64709864	          0.33505508	          3.11873282	          0.16939973	         -2.45455674	         -3.49035488	          2.52157911	          0.13303989	          0.00999999	          0.00999999	          0.02963403	          0.04057221	          0.01830939	          0.05001611	          0.02245265	          0.16648970	          0.00999999	          0.00999999	          0.13019957	          0.15271930	          0.00999999	          0.05822675	          0.09990590	          0.00999999	          0.10258878	          0.06477648	          0.04008910	          0.03485315	          0.03201579	          0.02245265	          0.00999999	          0.01541272	          0.00999999	          0.00999999	          0.36386021	
          2.09757849	         -5.38101689	          4.03775159	        -10.32368890	          1.98873540	          0.87836379	          0.01245188	         -9.35747536	         -3.50778708	          8.55626978	        -20.03955015	          7.28082246	         33.59181414	         20.58449089	          2.10216543	          1.54324345	          0.04584336	          2.90513841	          0.15874141	         -2.22540401	         -3.85618710	          2.72451204	          0.13987695	          0.00999999	          0.00999999	          0.02420883	          0.04952035	          0.02258912	          0.04085949	          0.01834216	          0.15030071	          0.00999999	          0.00999999	          0.10636349	          0.12476045	          0.00999999	          0.05111458	          0.08161578	          0.00999999	          0.11894594	          0.06170957	          0.04277813	          0.02847247	          0.02615455	          0.01834216	          0.00999999	          0.01474333	          0.00999999	          0.00999999	          0.36097179	
          2.11102450	         -5.40680477	          3.88533601	         -9.78116099	          2.00391817	          0.87939618	          0.01107676	         -8.67736530	         -3.20709007	          7.27564664	        -22.96193184	          6.01541091	         33.92428582	         19.80332866	          2.37523299	          2.35751060	         -0.21435392	          2.81690316	          0.15118545	         -2.03373698	         -4.20611134	          2.90695201	          0.13998009	          0.00999999	          0.00999999	          0.01977683	          0.05742584	          0.02375743	          0.03337920	          0.01498420	          0.13451342	          0.00999999	          0.00999999	          0.08689116	          0.10192012	          0.00999999	          0.04521919	          0.06667410	          0.00999999	          0.12357313	          0.05041218	          0.04551895	          0.02325992	          0.02160480	          0.01498420	          0.00999999	          0.01548648	          0.00999999	          0.00999999	          0.35031936	
